<?xml version="1.0" encoding="utf-8"?>
<!-- Generator: Adobe Illustrator 19.0.0, SVG Export Plug-In . SVG Version: 6.00 Build 0)  -->
<svg version="1.1" id="Capa_1" xmlns="http://www.w3.org/2000/svg" xmlns:xlink="http://www.w3.org/1999/xlink" x="0px" y="0px"
	 viewBox="0 0 595.3 155.8" style="enable-background:new 0 0 595.3 155.8;" xml:space="preserve">
<style type="text/css">
	.st0{fill:#010202;}
</style>
<g id="XMLID_12_">
	<path id="XMLID_5_" class="st0" d="M29.2,112.6c0,0,0.3-0.4,0.6-1.2c4.4-12.8,45.8-128.3,93.7-77.5c0,0-14.9-35.6-49.9-25.5
		S30.2,99.9,29.2,112.6z"/>
	<path id="XMLID_6_" class="st0" d="M127.8,127.9c0,0-0.5,0-1.3,0.2C113.4,131.2-6.2,158.7,10.7,91c0,0-21.9,31.7,5.5,55.8
		S116.7,133.9,127.8,127.9z"/>
	<path id="XMLID_7_" class="st0" d="M87.2,31.7c0,0,0.3,0.5,0.8,1c9.8,9.3,97.7,95,31.6,117.5c0,0,38.5,1.3,43.9-34.8
		C168.9,79.3,98.3,37.9,87.2,31.7z"/>
	<path id="XMLID_1_" class="st0" d="M61.9,89.7c0,0-0.5-8.4,6.2-15.9c6.7-7.5,17.4-7.8,17.4-7.8s2.7,11.2-6,18.2S65,90.5,61.9,89.7z
		"/>
	<path id="XMLID_9_" class="st0" d="M111.2,92c0,0,0.5,8.4-6.2,15.9c-6.7,7.5-17.4,7.8-17.4,7.8s-2.7-11.2,6-18.2S108,91.2,111.2,92
		z"/>
	<path id="XMLID_11_" class="st0" d="M87.9,66.1c0,0,8.4-0.5,15.9,6.2c7.5,6.7,7.8,17.4,7.8,17.4s-11.2,2.7-18.2-6
		S87.1,69.2,87.9,66.1z"/>
	<path id="XMLID_10_" class="st0" d="M85.6,115.4c0,0-8.4,0.5-15.9-6.2s-7.8-17.4-7.8-17.4s11.2-2.7,18.2,6S86.3,112.3,85.6,115.4z"
		/>
	<g id="XMLID_22_">
		<path id="XMLID_23_" class="st0" d="M202.6,52.5h-13.9v8.8h16.4v6.8h-25.3V31.4h25.3v6.8h-16.5v7.7h13.9V52.5z"/>
		<path id="XMLID_26_" class="st0" d="M216.4,40.8l0.3,3.2c1.9-2.5,4.5-3.7,7.8-3.7c3.4,0,5.8,1.4,7,4.1c1.8-2.7,4.5-4.1,8-4.1
			c5.5,0,8.4,3.3,8.5,10v17.7h-8.5V50.9c0-1.4-0.2-2.4-0.7-3c-0.5-0.6-1.3-1-2.6-1c-1.7,0-2.9,0.7-3.8,2.2l0,0.4v18.6h-8.5V50.9
			c0-1.4-0.2-2.5-0.7-3.1c-0.5-0.6-1.3-1-2.6-1c-1.6,0-2.9,0.7-3.7,2.2v19h-8.5V40.8H216.4z"/>
		<path id="XMLID_28_" class="st0" d="M278.1,54.6c0,4.2-1,7.6-2.9,10.1c-1.9,2.5-4.5,3.8-7.7,3.8c-2.5,0-4.6-0.9-6.2-2.7v12.7h-8.5
			V40.8h7.9l0.3,2.5c1.6-2,3.8-3,6.4-3c3.4,0,6,1.2,7.8,3.7c1.9,2.5,2.8,5.9,2.8,10.2V54.6z M269.6,54.1c0-4.8-1.4-7.3-4.2-7.3
			c-2,0-3.4,0.7-4,2.2v10.7c0.7,1.5,2.1,2.3,4.1,2.3c2.7,0,4.1-2.3,4.2-7V54.1z"/>
		<path id="XMLID_31_" class="st0" d="M298.3,48.5l-2.8-0.2c-2.7,0-4.4,0.8-5.1,2.5v17.3h-8.5V40.8h8l0.3,3.5c1.4-2.7,3.4-4,6-4
			c0.9,0,1.7,0.1,2.4,0.3L298.3,48.5z"/>
		<path id="XMLID_33_" class="st0" d="M314.1,68.6c-4.2,0-7.6-1.2-10.2-3.7c-2.6-2.5-3.9-5.7-3.9-9.7v-0.7c0-2.8,0.5-5.2,1.5-7.4
			c1-2.1,2.5-3.8,4.5-4.9c2-1.2,4.3-1.8,7.1-1.8c3.8,0,6.9,1.2,9.1,3.6c2.2,2.4,3.3,5.7,3.3,9.9v3.3h-16.9c0.3,1.5,1,2.7,2,3.6
			c1,0.9,2.4,1.3,4,1.3c2.7,0,4.8-0.9,6.3-2.8l3.9,4.6c-1.1,1.5-2.6,2.6-4.5,3.5C318.4,68.1,316.3,68.6,314.1,68.6z M313.1,46.9
			c-2.5,0-4,1.6-4.4,4.9h8.6v-0.7c0-1.4-0.3-2.4-1-3.2C315.5,47.2,314.5,46.9,313.1,46.9z"/>
		<path id="XMLID_36_" class="st0" d="M343.2,60.4c0-0.7-0.4-1.3-1.1-1.7c-0.8-0.4-2.2-0.9-4.3-1.4c-2.1-0.5-3.9-1.1-5.2-1.9
			c-1.4-0.8-2.4-1.7-3.1-2.8c-0.7-1.1-1.1-2.3-1.1-3.8c0-2.5,1-4.6,3.1-6.2c2.1-1.6,4.8-2.4,8.1-2.4c3.6,0,6.5,0.8,8.7,2.4
			c2.2,1.6,3.3,3.8,3.3,6.4H343c0-2.2-1.2-3.3-3.5-3.3c-0.9,0-1.6,0.2-2.2,0.7c-0.6,0.5-0.9,1.1-0.9,1.9c0,0.8,0.4,1.4,1.1,1.8
			c0.7,0.5,1.9,0.9,3.5,1.2c1.6,0.3,3,0.7,4.3,1.1c4.1,1.4,6.1,3.9,6.1,7.6c0,2.5-1.1,4.5-3.3,6.1c-2.2,1.6-5.1,2.3-8.6,2.3
			c-2.3,0-4.4-0.4-6.2-1.3c-1.8-0.8-3.3-2-4.3-3.4c-1-1.4-1.5-3-1.5-4.6h7.9c0,1.3,0.5,2.2,1.3,2.8c0.8,0.6,1.8,0.9,3.1,0.9
			c1.2,0,2-0.2,2.6-0.7C342.9,61.8,343.2,61.2,343.2,60.4z"/>
		<path id="XMLID_38_" class="st0" d="M370.7,68.1c-0.3-0.6-0.6-1.4-0.8-2.4c-1.6,2-3.7,2.9-6.5,2.9c-2.6,0-4.8-0.8-6.5-2.3
			c-1.8-1.6-2.7-3.5-2.7-5.9c0-3,1.1-5.2,3.3-6.7c2.2-1.5,5.4-2.3,9.5-2.3h2.6V50c0-2.5-1.1-3.8-3.2-3.8c-2,0-3,1-3,3h-8.5
			c0-2.6,1.1-4.8,3.4-6.4c2.2-1.6,5.1-2.5,8.6-2.5c3.5,0,6.2,0.8,8.2,2.5c2,1.7,3,4,3.1,7v12.1c0,2.5,0.4,4.4,1.2,5.7v0.4H370.7z
			 M365.4,62.5c1.1,0,1.9-0.2,2.6-0.7c0.7-0.5,1.2-1,1.5-1.5v-4.4h-2.5c-3,0-4.4,1.3-4.4,4c0,0.8,0.3,1.4,0.8,1.9
			C364,62.3,364.6,62.5,365.4,62.5z"/>
		<path id="XMLID_41_" class="st0" d="M397,60.4c0-0.7-0.4-1.3-1.1-1.7c-0.8-0.4-2.2-0.9-4.3-1.4c-2.1-0.5-3.9-1.1-5.2-1.9
			c-1.4-0.8-2.4-1.7-3.1-2.8c-0.7-1.1-1.1-2.3-1.1-3.8c0-2.5,1-4.6,3.1-6.2c2.1-1.6,4.8-2.4,8.1-2.4c3.6,0,6.5,0.8,8.7,2.4
			c2.2,1.6,3.3,3.8,3.3,6.4h-8.5c0-2.2-1.2-3.3-3.5-3.3c-0.9,0-1.6,0.2-2.2,0.7c-0.6,0.5-0.9,1.1-0.9,1.9c0,0.8,0.4,1.4,1.1,1.8
			c0.7,0.5,1.9,0.9,3.5,1.2c1.6,0.3,3,0.7,4.3,1.1c4.1,1.4,6.1,3.9,6.1,7.6c0,2.5-1.1,4.5-3.3,6.1c-2.2,1.6-5.1,2.3-8.6,2.3
			c-2.3,0-4.4-0.4-6.2-1.3c-1.8-0.8-3.3-2-4.3-3.4c-1-1.4-1.5-3-1.5-4.6h7.9c0,1.3,0.5,2.2,1.3,2.8c0.8,0.6,1.8,0.9,3.1,0.9
			c1.2,0,2-0.2,2.6-0.7C396.7,61.8,397,61.2,397,60.4z"/>
	</g>
	<g id="XMLID_2_">
		<path id="XMLID_3_" class="st0" d="M176.8,149.7V81.2h63.8v17.6h-45.4v50.9H176.8z M201.4,123.5V108h38.7v15.5H201.4z"/>
		<path id="XMLID_14_" class="st0" d="M315,149.7l-5.7-10.5h-32.1l7.8-14.6h16.5l-11.7-22l-25.1,47.2h-20.3l35-63.4
			c1.9-3.4,4.6-5.1,8.2-5.1h4.2c3.6,0,6.3,1.7,8.2,5.1l35,63.4H315z"/>
		<path id="XMLID_16_" class="st0" d="M376.3,149.7c-5.3,0-10.1-0.8-14.5-2.5c-4.4-1.6-8.2-4-11.4-7c-3.2-3-5.7-6.6-7.5-10.8
			c-1.8-4.2-2.7-8.9-2.7-14c0-5.1,0.9-9.8,2.7-14c1.8-4.2,4.3-7.8,7.5-10.8c3.2-3,7-5.4,11.4-7c4.4-1.6,9.3-2.5,14.5-2.5h33.5v17.6
			h-34.8c-2.4,0-4.6,0.4-6.6,1.2c-2,0.8-3.8,1.9-5.3,3.4c-1.5,1.5-2.6,3.2-3.5,5.3c-0.8,2-1.3,4.3-1.3,6.7c0,2.5,0.4,4.7,1.3,6.7
			c0.8,2,2,3.8,3.5,5.2c1.5,1.4,3.2,2.6,5.3,3.4c2,0.8,4.2,1.2,6.6,1.2h34.8v17.7H376.3z"/>
		<path id="XMLID_18_" class="st0" d="M494,149.7l-5.7-10.5h-32.1l7.8-14.6h16.5l-11.7-22l-25.1,47.2h-20.3l35-63.4
			c1.9-3.4,4.6-5.1,8.2-5.1h4.2c3.6,0,6.3,1.7,8.2,5.1l35,63.4H494z"/>
		<path id="XMLID_20_" class="st0" d="M534.1,149.7c-5.3,0-7.9-2.5-7.9-7.5V138c0-2.1,0.3-3.9,1-5.3c0.7-1.4,2.1-2.9,4.2-4.6
			l33.8-29.7h-39V81.2h61c4.7,0,7.1,2,7.1,6v3.5c0,1.8-0.4,3.3-1.2,4.5c-0.8,1.2-2,2.5-3.6,3.8l-38.2,33.4h43v17.3H534.1z"/>
	</g>
</g>
</svg>
